<?xml version="1.0" encoding="UTF-8" standalone="no"?>
<!-- Created with Inkscape (http://www.inkscape.org/) -->

<svg
   width="300"
   height="300"
   viewBox="0 0 79.374998 79.375"
   version="1.1"
   id="svg1"
   xmlns="http://www.w3.org/2000/svg"
   xmlns:svg="http://www.w3.org/2000/svg">
  <defs
     id="defs1" />
  <g
     id="layer1">
    <path
       id="path1"
       style="fill:#ffffff;stroke-width:5.29167;stroke-linejoin:bevel"
       d="M 39.678198,1.3260173 A 38.909855,38.909855 0 0 0 0.76842855,40.236304 38.909855,38.909855 0 0 0 12.116056,67.560217 l 55.82605,-29.15946 c 0.2218,-0.115855 0.433045,-0.176043 0.624768,-0.185002 0.575169,-0.02688 0.976685,0.404263 0.976685,1.154968 v 9.256283 c 0,1.00094 -0.714253,2.179832 -1.601453,2.64325 L 22.435323,75.040381 A 38.909855,38.909855 0 0 0 39.678198,79.146073 38.909855,38.909855 0 0 0 78.588485,40.236304 38.909855,38.909855 0 0 0 68.345182,13.933516 L 12.486576,43.110547 c -0.8872,0.463417 -1.601452,0.03046 -1.601452,-0.970484 v -9.256282 c 0,-1.00094 0.714252,-2.179832 1.601452,-2.64325 L 58.512191,6.1996216 A 38.909855,38.909855 0 0 0 39.678198,1.3260173 Z M 68.980286,19.482532 c 0.575169,-0.02688 0.976684,0.404263 0.976684,1.154968 v 9.256283 c 0,1.00094 -0.714252,2.179832 -1.601452,2.643249 L 12.248865,61.84377 c -0.887201,0.463418 -1.601453,0.03046 -1.601453,-0.970483 v -9.256283 c 0,-1.00094 0.714252,-2.179832 1.601453,-2.643249 L 68.355518,19.667017 c 0.2218,-0.115855 0.433045,-0.175525 0.624768,-0.184485 z" />
  </g>
</svg>
